<svg width="303" height="74" viewBox="0 0 303 74" fill="none" xmlns="http://www.w3.org/2000/svg">
<path d="M67.4716 21.6184C64.6491 21.6184 61.8022 20.637 59.5649 18.6375L61.9851 15.7357C63.6615 17.1195 65.4172 17.9974 67.5508 17.9974C69.2272 17.9974 70.2392 17.3329 70.2392 16.2417V16.1868C70.2392 15.1505 69.5991 14.6201 66.4901 13.8154C62.7349 12.8584 60.3148 11.822 60.3148 8.1217V8.06683C60.3148 4.6896 63.0275 2.45233 66.8315 2.45233C69.5442 2.45233 71.8608 3.30579 73.7505 4.81762L71.623 7.90833C69.971 6.76227 68.3494 6.07341 66.7766 6.07341C65.2099 6.07341 64.3809 6.79275 64.3809 7.69497V7.74984C64.3809 8.97515 65.1794 9.3714 68.3982 10.2005C72.1778 11.188 74.3053 12.5414 74.3053 15.7906V15.8454C74.3175 19.5397 71.495 21.6184 67.4716 21.6184ZM86.9303 21.6733C81.1817 21.6733 77.0546 17.3878 77.0546 12.0903V12.0354C77.0546 6.73788 81.2304 2.40356 86.9791 2.40356C92.7277 2.40356 96.8547 6.68912 96.8547 11.9866V12.0415C96.8547 17.3329 92.6789 21.6733 86.9303 21.6733ZM92.5692 12.0354C92.5692 8.84104 90.2283 6.18314 86.9242 6.18314C83.6262 6.18314 81.3341 8.79227 81.3341 11.9866V12.0415C81.3341 15.2358 83.675 17.8937 86.9791 17.8937C90.277 17.8937 92.5692 15.2846 92.5692 12.0903V12.0354ZM108.273 21.6428C103.268 21.6428 100.208 18.8508 100.208 13.3643V2.72056H104.304V13.2607C104.304 16.2966 105.822 17.8632 108.321 17.8632C110.821 17.8632 112.339 16.3453 112.339 13.3948V2.72056H116.435V13.2363C116.448 18.8752 113.278 21.6428 108.273 21.6428ZM129.06 6.50014V21.3502H124.964V6.50014H119.294V2.72056H134.73V6.50014H129.06ZM179.951 21.3502L178.25 17.1744H170.374L168.673 21.3502H164.497L172.483 2.58645H176.262L184.248 21.3502H179.951ZM174.306 7.51209L171.831 13.5533H176.781L174.306 7.51209ZM193.472 21.6184C190.649 21.6184 187.802 20.637 185.565 18.6375L187.985 15.7357C189.662 17.1195 191.417 17.9974 193.545 17.9974C195.221 17.9974 196.233 17.3329 196.233 16.2417V16.1868C196.233 15.1505 195.593 14.6201 192.484 13.8154C188.735 12.8584 186.309 11.822 186.309 8.1217V8.06683C186.309 4.6896 189.021 2.45233 192.832 2.45233C195.544 2.45233 197.861 3.30579 199.751 4.81762L197.623 7.90833C195.971 6.76227 194.349 6.07341 192.777 6.07341C191.204 6.07341 190.381 6.79275 190.381 7.69497V7.74984C190.381 8.97515 191.18 9.3714 194.398 10.2005C198.178 11.188 200.305 12.5414 200.305 15.7906V15.8454C200.311 19.5397 197.489 21.6184 193.472 21.6184ZM204.067 2.72056H208.163V21.3502H204.067V2.72056ZM246.91 21.3502L237.888 9.50551V21.3502H233.846V2.72056H237.626L246.355 14.1934V2.72056H250.397V21.3502H246.91ZM217.082 17.2171L218.569 13.5533L221.044 7.51209L223.47 13.4436H227.604L222.983 2.58645H219.209L211.223 21.3502H215.399L217.088 17.2171H217.082ZM69.1236 47.6305C63.6432 47.6305 59.571 43.3998 59.571 38.0474V37.9925C59.571 32.695 63.564 28.3607 69.2821 28.3607C72.7935 28.3607 74.8966 29.5312 76.6279 31.2381L74.0188 34.2434C72.5801 32.9389 71.117 32.1403 69.2577 32.1403C66.1182 32.1403 63.8566 34.7494 63.8566 37.9438V37.9986C63.8566 41.193 66.0634 43.8509 69.2577 43.8509C71.3853 43.8509 72.6898 42.9974 74.1529 41.6685L76.762 44.302C74.8478 46.3503 72.7203 47.6305 69.1236 47.6305ZM114.131 47.3074L105.109 35.4688V47.3074H101.061V28.6777H104.841L113.57 40.1506V28.6777H117.618V47.3074H114.131ZM135.955 47.3074L134.254 43.1315H126.378L124.677 47.3074H120.501L128.487 28.5436H132.267L140.253 47.3074H135.955ZM130.31 33.4692L127.835 39.5105H132.785L130.31 33.4692ZM150.378 47.3074H143.112V28.6777H150.378C156.231 28.6777 160.278 32.695 160.278 37.9377V37.9925C160.278 43.2352 156.237 47.3074 150.378 47.3074ZM155.993 37.9925C155.993 34.6946 153.731 32.378 150.378 32.378H147.208V43.607H150.378C153.731 43.607 155.993 41.3454 155.993 38.0474V37.9925ZM164.113 28.6777H168.209V47.3074H164.113V28.6777ZM186.735 47.3074L185.035 43.1315H177.159L175.458 47.3074H171.282L179.268 28.5436H183.047L191.033 47.3074H186.735ZM181.097 33.4692L178.622 39.5105H183.572L181.097 33.4692ZM206.962 47.3074L197.94 35.4688V47.3074H193.898V28.6777H197.678L206.401 40.1506V28.6777H210.449V47.3074H206.962ZM84.3151 43.1803L85.8025 39.5105L88.2775 33.4692L90.7038 39.4007H94.8369L90.2222 28.5497H86.4426L78.4567 47.3074H82.6325L84.3212 43.1803H84.3151ZM67.2643 73.3681H60.0039V54.7446H67.2643C73.1166 54.7446 77.1583 58.7619 77.1583 64.0046V64.0594C77.1583 69.296 73.1166 73.3681 67.2643 73.3681ZM72.8788 64.0533C72.8788 60.7553 70.6172 58.4388 67.2643 58.4388H64.1004V69.6678H67.2643C70.6172 69.6678 72.8788 67.4062 72.8788 64.1082V64.0533ZM80.9866 54.7446H85.0832V73.3681H80.9866V54.7446ZM98.7079 73.6852C92.9105 73.6852 88.9176 69.613 88.9176 64.1082V64.0533C88.9176 58.7619 93.0386 54.4215 98.6836 54.4215C102.036 54.4215 104.06 55.3298 105.999 56.9758L103.42 60.0909C101.982 58.896 100.707 58.2011 98.5494 58.2011C95.5684 58.2011 93.2032 60.8346 93.2032 63.9985V64.0533C93.2032 67.461 95.5441 69.9604 98.842 69.9604C100.329 69.9604 101.665 69.5886 102.701 68.8449V66.1809H98.5799V62.6451H106.669V70.7346C104.743 72.3562 102.11 73.6852 98.7079 73.6852ZM110.784 54.7446H114.881V73.3681H110.784V54.7446ZM148.239 73.3681L146.538 69.1923H138.662L136.961 73.3681H132.785L140.765 54.6105H144.544L152.524 73.3681H148.239ZM142.6 59.5361L140.125 65.5774H145.075L142.6 59.5361ZM155.389 73.3681V54.7446H159.486V69.6434H168.77V73.3681H155.389ZM127.957 54.7446H133.632V58.5181H127.957V54.7446ZM127.957 66.315H123.866V73.3681H127.969V66.315H127.957ZM141.972 10.0907V2.72056H137.875V21.3502H141.972V13.8703V10.0907ZM153.622 13.9069H149.531V21.3502H153.628L153.622 13.9069ZM193.697 73.3681L191.996 69.1923H184.12L182.419 73.3681H178.244L186.223 54.6105H190.003L197.983 73.3681H193.697ZM188.058 59.5361L185.583 65.5774H190.533L188.058 59.5361ZM228.811 73.6852C223.33 73.6852 219.258 69.4545 219.258 64.1082V64.0533C219.258 58.7619 223.251 54.4215 228.969 54.4215C232.481 54.4215 234.584 55.5919 236.315 57.2928L233.706 60.2981C232.267 58.9936 230.804 58.195 228.945 58.195C225.805 58.195 223.544 60.8041 223.544 63.9924V64.0472C223.544 67.2416 225.75 69.8995 228.945 69.8995C231.072 69.8995 232.377 69.046 233.84 67.7171L236.449 70.3506C234.529 72.4111 232.401 73.6852 228.811 73.6852ZM251.366 73.3681V65.8943H243.813V73.3681H239.717V54.7446H243.813V62.1148H251.366V54.7446H255.463V73.3681H251.366ZM260.12 54.7446H264.217V73.3681H260.12V54.7446ZM278.421 73.5023H274.8L267.271 54.7446H271.794L276.665 67.8634L281.53 54.7446H285.949L278.421 73.5023ZM288.821 73.3681V54.7446H302.866V58.3901H292.893V62.1696H301.671V65.8151H292.893V69.7227H303V73.3681H288.821ZM212.4 66.7173C214.771 65.8395 216.393 63.9497 216.393 60.9443V60.8895C216.393 57.0611 213.759 54.7446 209.37 54.7446H200.854V63.7851H204.951V58.4388H209.023C211.016 58.4388 212.241 59.341 212.241 61.0967V61.1516C212.241 62.7183 211.095 63.7851 209.102 63.7851H208.206V67.4549L212.162 73.3621H216.954L212.4 66.7173Z" fill="#1E1B1D"/>
<path d="M149.525 2.72656V10.1333H141.972V13.9068H153.621V2.72656H149.525ZM227.628 13.4984L227.616 13.4435H218.612L217.082 17.217H225.001L226.683 21.3501H230.969L227.628 13.4984ZM94.8612 39.4555L94.849 39.4006H85.8451L84.3149 43.1802H92.2338L93.9163 47.3073H98.2018L94.8612 39.4555ZM123.872 66.3149H127.957V54.7445H118.203V58.5241H123.872V66.3149ZM204.95 63.7911H200.854V73.3681H204.95V67.4061H208.169L208.206 67.4609V63.7911H204.95Z" fill="#F99E2A"/>
<path d="M43.5505 23.7275L43.3371 23.5202L42.2947 22.4839L35.3939 15.6624L32.2483 18.8445L39.1491 25.666L40.1916 26.7024L40.4049 26.9096C44.2211 30.677 44.2576 36.8219 40.4842 40.6319C36.7168 44.442 30.5719 44.4786 26.7619 40.7112L26.5485 40.5039L25.5 39.4676L18.6053 32.6522L15.4597 35.8343L22.3605 42.6558L23.4029 43.6861L23.6163 43.8933C29.1759 49.392 38.1738 49.3372 43.6663 43.7714C49.165 38.2179 49.1101 29.2201 43.5505 23.7275Z" fill="#FFCF37"/>
<path d="M15.4476 29.4214L8.58338 22.5633L7.54095 21.5269L7.33368 21.3196C3.54192 17.5279 3.54192 11.383 7.33368 7.59735C11.1255 3.80558 17.2642 3.80558 21.056 7.59735L21.2693 7.80462L22.3057 8.84095L29.1699 15.7052L22.3057 22.5633L15.4476 29.4214ZM15.4476 35.7552L18.6115 32.5913L25.4756 25.7271L32.3398 18.8629L35.5037 15.6991L32.3398 12.5352L25.4756 5.67099L24.4332 4.63465L24.226 4.42738C18.6968 -1.10177 9.69897 -1.10177 4.16981 4.42738C-1.35934 9.95654 -1.35934 18.9544 4.16981 24.4835L4.37708 24.6908L5.41951 25.7332L12.2837 32.5974L15.4476 35.7552Z" fill="#F99E2A"/>
<path d="M26.9815 7.05466L23.6592 10.3648L20.4404 7.25583L23.8847 3.82373L26.9815 7.05466Z" fill="#1E1B1D"/>
<path d="M40.4352 26.9645L40.2279 26.7573L39.1855 25.7148L37.4725 24.0018L32.3213 29.153L25.4632 22.2888L18.599 15.4307L25.4632 8.56653L26.4995 7.53019L26.7068 7.31683C30.4985 3.52506 36.6434 3.52506 40.4291 7.31683C44.1477 11.0354 44.2087 17.0218 40.6242 20.8258L42.3432 22.5449L43.3857 23.5812L43.5929 23.7885C43.66 23.8555 43.721 23.9226 43.7819 23.9896C49.1099 18.4483 49.055 9.60896 43.5929 4.14686C38.0638 -1.38229 29.066 -1.38229 23.5368 4.14686L23.3235 4.35413L22.2871 5.39047L15.4351 12.2669L12.2712 15.4307L15.4351 18.5946L22.2993 25.4588L29.1635 32.323L32.3274 35.4869L35.4912 32.323L40.6302 27.184C40.5632 27.1047 40.5022 27.0316 40.4352 26.9645Z" fill="#1E1B1D"/>
<path d="M23.7807 37.7058L20.5254 40.9124L23.6893 44.0945L26.9811 40.827L23.7807 37.7058Z" fill="#484D56"/>
<path d="M29.1516 32.3229L22.2752 39.1993L21.2328 40.2418L21.0255 40.449C17.2338 44.2408 11.095 44.2408 7.30323 40.449C3.66386 36.8097 3.52975 31.0001 6.88869 27.1839L5.42563 25.7209L4.38929 24.6784L4.17593 24.4712C4.02353 24.3188 3.88942 24.1542 3.74311 23.9957C-1.37151 29.5492 -1.24959 38.224 4.13936 43.6068C9.66851 49.136 18.6663 49.136 24.1955 43.6068L24.4028 43.3995L25.4452 42.3632L32.2972 35.5051L32.3094 35.4929L29.1516 32.3229ZM7.33371 21.3134L7.54097 21.5207L8.5834 22.5631L10.0221 24.0018L15.4232 18.6006L12.2593 15.4368L12.2472 15.449L6.8826 20.8135C7.0289 20.9842 7.17521 21.1488 7.33371 21.3134Z" fill="#484D56"/>
</svg>
