<svg width="488" height="255" viewBox="0 0 488 255" fill="none" xmlns="http://www.w3.org/2000/svg">
<path d="M319.548 135.285V149.565L319.199 149.494V150.454L307.974 143.724L298.885 127.586H292.815L285.864 140.113H285.792L285.456 140.811H271.995L264.927 128.054L265.187 127.586H259.691L259.116 128.624L266.071 141.159H265.91L266.227 141.51H251.559L244.976 153.521L244.96 153.492L244.868 153.658L244.572 153.126L244.493 153.27L244.087 152.545V165.961L244.783 164.731L252.104 177.793H267.062L261.281 189.348L253.645 194.302L247.44 198.325L245.248 199.619L244.088 198.92V206.499L255.774 213.529V213.578L256.471 213.985L256.453 227.411L244.588 234.549L244.088 234.248V240.02L244.976 240.553L256.471 233.616V233.733L256.819 233.444V247.692L268.738 254.74L268.706 254.757L268.87 254.855L268.633 254.991H278.863L278.807 254.957L290.6 247.629L291.314 233.391V232.606L301.481 238.37L306.21 246.292L311.299 254.811L311.2 254.989H316.801L323.819 242.325H323.909L324.248 241.628L337.704 241.645L344.753 254.388L344.42 254.989H350.278L350.637 254.339L343.576 241.628H343.753L343.431 241.279H357.647L364.846 228.516V228.634L364.944 228.463L365.256 229.026L365.343 228.873L365.95 230.007V216.029L364.895 217.928L357.575 205.019H343.41L344.63 202.576L349.091 193.711L349.523 193.431L349.581 193.466L349.641 193.355L349.712 193.313L356.681 188.778L357.295 188.38L364.769 183.53L365.963 184.239V177.217L355.103 170.674V170.602L354.406 170.201V155.843L365.963 148.912V143.077L363.866 144.34L363.731 144.424L354.749 149.783V135.399L354.051 135.163V135.42L341.216 127.821L341.565 127.605L341.532 127.582H331.68L332.023 127.79L319.548 135.285ZM354.399 149.878L354.601 149.941L354.399 150.063V149.878ZM319.199 156.284L319.075 173.606H293.003L306.305 149.23L319.199 156.284ZM318.503 178.49V205.36H293.062V178.49H318.503ZM254.663 171.401L247.919 159.235L254.832 146.742H268.992L275.59 158.696L268.628 171.518L254.663 171.401ZM284.938 245.069L273.471 251.97L261.693 244.883V230.385L272.944 223.62L285.035 230.77L284.938 245.069ZM285.991 224.205L274.229 217.128L262.04 224.414V210.029L250.101 202.848L250.45 202.628L250.301 202.534L260.467 196.428L286.087 211.614L285.991 224.205ZM287.831 206.418L264.091 192.355L271.19 178.148L287.831 178.284V206.418ZM287.744 172.567L275.026 172.461L282.114 159.669L274.805 146.4H289.227L296.426 133.405L296.644 133.793L296.735 133.629L302.922 144.757L287.744 172.567ZM302.952 234.87L291.316 228.555L291.451 210.246H316.387L302.952 234.87ZM320.438 236.063L313.24 249.066L313.023 248.674L312.933 248.834L306.762 237.683L321.93 209.893L334.647 210.002L327.562 222.793L334.862 236.059L320.438 236.063ZM355.005 211.428L361.742 223.589L354.815 236.063H340.669L334.075 224.121L341.055 211.299L355.005 211.428ZM338.095 205.361L323.021 205.214V177.884L345.246 191.059L338.095 205.361ZM359.432 180.362L348.78 187.282L324.067 172.636L324.168 159.147L336.895 166.805L349.159 159.403V174.195L359.432 180.362ZM349.159 138.065V153.101L337.533 160.091L325.13 152.763L325.241 137.907L337.072 130.773L349.159 138.065ZM412.36 119.891V105.612L412.708 105.681V104.722L423.934 111.451L433.023 127.589H439.094L446.046 115.062H446.117L446.454 114.365H459.913L466.981 127.121L466.722 127.588H472.217L472.793 126.549L465.838 114.015H465.998L465.681 113.666H480.355L486.937 101.653L486.954 101.683L487.044 101.516L487.341 102.048L487.42 101.904L487.826 102.629V89.2146L487.13 90.4441L479.81 77.3812H464.853L470.634 65.8274L478.27 60.8728L484.476 56.8479L486.667 55.5532L487.828 56.2508V48.6717L476.143 41.6436V41.5947L475.446 41.1876L475.464 27.761L487.329 20.6244L487.828 20.9257V15.1542L486.941 14.6195L475.446 21.558V21.44L475.098 21.729V7.48009L463.178 0.431638L463.21 0.413996L463.047 0.316293L463.284 0.180589H453.054L453.111 0.214515L441.317 7.54253L440.603 21.7806V22.565L430.436 16.8016L425.708 8.87785L420.619 0.358352L420.717 0.181947H415.117L408.099 12.8445H408.01L407.67 13.5434L394.213 13.5257L387.164 0.783107L387.498 0.181947H381.639L381.28 0.8306L388.341 13.5434H388.165L388.486 13.8921H374.259L367.059 26.6483V26.5316L366.962 26.7012L366.649 26.1394L366.563 26.2914L365.957 25.1569V39.1561L367.01 37.2563L374.33 50.1644H388.502L387.29 52.6071L382.829 61.4727L382.397 61.7508L382.337 61.7169L382.279 61.8282L382.208 61.8703L375.238 66.4055L374.625 66.8031L367.15 71.6532L365.957 70.9434V77.9539L376.817 84.4962V84.5681L377.514 84.9752V99.3368L365.957 106.267V112.102L368.054 110.838L368.189 110.755L377.163 105.396V119.781L377.86 120.018V119.76L390.695 127.36L390.347 127.577L390.38 127.598H400.232L399.889 127.391L412.36 119.891ZM377.514 105.294L377.312 105.232L377.514 105.11V105.294ZM412.712 98.889L412.839 81.5677H438.91L425.608 105.944L412.712 98.889ZM413.411 76.6823V49.8129H438.85V76.6823H413.411ZM477.25 83.7715L483.994 95.9374L477.073 108.432H462.914L456.317 96.4761L463.285 83.6603L477.25 83.7715ZM446.971 10.1114L458.438 3.20949L470.216 10.296V24.7905L458.965 31.5554L446.866 24.4146L446.971 10.1114ZM445.918 30.9745L457.679 38.0488L469.867 30.7628V45.1475L481.805 52.3289L481.457 52.5488L481.607 52.6437L471.441 58.7504L445.821 43.5638L445.918 30.9745ZM444.08 48.764L467.82 62.8283L460.721 77.0338L444.08 76.8981V48.764ZM444.165 82.6167L456.885 82.7212L449.796 95.514L457.106 108.783H442.682L435.482 121.778L435.265 121.389L435.174 121.554L428.986 110.427L444.165 82.6167ZM428.957 20.3123L440.595 26.6279L440.459 44.9371H415.518L428.957 20.3123ZM411.471 19.1194L418.67 6.11764L418.887 6.50982L418.978 6.34833L425.154 17.4964L409.982 45.2859L397.263 45.1773L404.35 32.3845L397.05 19.1221L411.471 19.1194ZM376.904 43.7551L370.167 31.5933L377.095 19.1194H391.253L397.847 31.0682L390.868 43.8908L376.904 43.7551ZM393.816 49.8211L408.888 49.9677V77.2998L386.675 64.1256L393.816 49.8211ZM372.478 74.8205L383.129 67.8996L407.843 82.5475L407.743 96.0351L395.009 88.3854L382.747 95.7854V81.0032L372.478 74.8205ZM382.752 117.117V102.082L394.395 95.0865L406.798 102.415L406.687 117.273L394.854 124.407L382.752 117.117ZM412.539 135.285V149.565L412.887 149.494V150.454L424.113 143.724L433.202 127.586H439.273L446.223 140.113H446.296L446.631 140.811H460.092L467.16 128.054L466.901 127.586H472.396L472.971 128.624L466.016 141.159H466.176L465.858 141.51H480.528L487.111 153.521L487.127 153.492L487.218 153.658L487.513 153.126L487.592 153.27L487.999 152.545V165.961L487.302 164.731L479.982 177.793H465.027L470.809 189.348L478.445 194.302L484.648 198.325L486.84 199.619L488 198.93V206.509L476.315 213.538V213.587L475.618 213.994L475.635 227.421L487.5 234.559L488 234.258V240.029L487.112 240.563L475.618 233.625V233.742L475.269 233.453V247.702L463.351 254.749L463.382 254.767L463.218 254.864L463.455 255H453.225L453.283 254.966L441.481 247.638L440.767 233.399V232.614L430.6 238.378L425.871 246.3L420.783 254.82L420.881 254.997H415.28L408.264 242.333H408.173L407.834 241.636L394.377 241.654L387.328 254.396L387.662 254.997H381.803L381.442 254.347L388.504 241.636H388.329L388.649 241.287H374.434L367.234 228.524V228.642L367.136 228.471L366.824 229.035L366.737 228.881L366.13 230.016V216.029L367.185 217.928L374.505 205.019H388.678L387.465 202.576L383.004 193.711L382.573 193.431L382.513 193.466L382.454 193.355L382.385 193.313L375.414 188.778L374.8 188.38L367.326 183.53L366.131 184.239V177.217L376.994 170.674V170.602L377.69 170.201V155.843L366.136 148.912V143.077L368.233 144.34L368.368 144.424L377.342 149.782V135.397L378.039 135.161V135.419L390.874 127.82L390.525 127.604L390.559 127.581H400.409L400.068 127.788L412.539 135.285ZM377.689 149.878L377.487 149.941L377.689 150.063V149.878ZM412.887 156.284L413.013 173.606H439.085L425.78 149.232L412.887 156.284ZM413.58 178.493V205.362H439.021V178.493H413.58ZM477.427 171.404L484.169 159.238L477.249 146.745H463.088L456.49 158.699L463.464 171.518L477.427 171.404ZM447.145 245.069L458.613 251.97L470.39 244.883V230.385L459.139 223.62L447.046 230.77L447.145 245.069ZM446.093 224.205L457.852 217.132L470.042 224.418V210.033L481.98 202.852L481.632 202.632L481.781 202.538L471.614 196.432L445.994 211.618L446.093 224.205ZM444.252 206.418L467.992 192.355L460.889 178.144L444.248 178.28L444.252 206.418ZM444.339 172.567L457.057 172.461L449.969 159.669L457.278 146.4H442.86L435.659 133.405L435.442 133.793L435.35 133.629L429.163 144.757L444.339 172.567ZM429.131 234.87L440.767 228.555L440.631 210.246H415.693L429.131 234.87ZM411.644 236.063L418.842 249.066L419.059 248.674L419.151 248.834L425.326 237.687L410.159 209.898L397.441 210.006L404.526 222.798L397.227 236.063H411.644ZM377.078 211.428L370.34 223.589L377.269 236.063H391.426L398.021 224.121L391.041 211.299L377.078 211.428ZM393.99 205.361L409.062 205.214V177.884L386.84 191.059L393.99 205.361ZM372.642 180.357L383.294 187.278L408.009 172.632L407.908 159.143L395.18 166.801L382.916 159.399V174.191L372.642 180.357ZM382.916 138.061V153.097L394.56 160.091L406.962 152.763L406.851 137.907L395.02 130.773L382.916 138.061ZM319.548 119.891V105.612L319.199 105.681V104.722L307.974 111.451L298.885 127.589H292.815L285.864 115.065H285.792L285.456 114.367H271.995L264.927 127.124L265.187 127.59H259.691L259.116 126.552L266.071 114.017H265.91L266.227 113.668H251.559L244.976 101.656L244.96 101.686L244.868 101.519L244.572 102.051L244.493 101.907L244.087 102.632V89.2173L244.783 90.4468L252.104 77.3839H267.062L261.281 65.8301L253.645 60.8755L247.439 56.8479L245.247 55.5532L244.087 56.2508V48.6717L255.773 41.6436V41.5947L256.47 41.1876L256.452 27.761L244.587 20.6244L244.087 20.9257V15.1542L244.975 14.6195L256.471 21.5648V21.4468L256.819 21.7358V7.48689L268.738 0.438413L268.706 0.420771L268.87 0.323068L268.633 0.187364H278.863L278.807 0.22129L290.6 7.5493L291.314 21.7874V22.5717L301.481 16.8084L306.21 8.88464L311.299 0.365144L311.2 0.188722H316.801L323.819 12.8513H323.909L324.248 13.5501L337.704 13.5325L344.753 0.789898L344.42 0.188722H350.278L350.637 0.837391L343.576 13.5501H343.753L343.431 13.8989H357.647L364.846 26.6551V26.5384L364.944 26.708L365.256 26.1462L365.343 26.2982L365.95 25.1637V39.1629L364.895 37.263L357.575 50.1712H343.41L344.63 52.6139L349.091 61.4794L349.523 61.7576L349.581 61.7237L349.641 61.835L349.712 61.877L356.681 66.4123L357.295 66.8099L364.769 71.6599L365.963 70.9502V77.9607L355.103 84.503V84.5749L354.406 84.982V99.3368L365.963 106.267V112.102L363.866 110.838L363.731 110.755L354.749 105.395V119.779L354.051 120.017V119.759L341.216 127.358L341.565 127.575L341.532 127.597H331.68L332.023 127.39L319.548 119.891ZM354.399 105.294L354.601 105.232L354.399 105.11V105.294ZM319.199 98.889L319.075 81.5677H293.003L306.305 105.944L319.199 98.889ZM318.503 76.6823V49.8129H293.062V76.6823H318.503ZM254.663 83.7715L247.919 95.9374L254.832 108.432H268.992L275.59 96.4761L268.621 83.6603L254.663 83.7715ZM284.938 10.1141L273.471 3.21221L261.697 10.3014V24.7959L272.948 31.5608L285.039 24.4119L284.938 10.1141ZM285.991 30.9773L274.229 38.0515L262.04 30.7656V45.1502L250.101 52.3316L250.45 52.5515L250.301 52.6465L260.467 58.7531L286.087 43.5665L285.991 30.9773ZM287.831 48.764L264.091 62.8283L271.19 77.0338L287.831 76.8981V48.764ZM287.744 82.6167L275.026 82.7212L282.114 95.514L274.805 108.783H289.227L296.426 121.778L296.644 121.389L296.735 121.554L302.922 110.427L287.744 82.6167ZM302.952 20.3123L291.316 26.6279L291.451 44.9371H316.387L302.952 20.3123ZM320.438 19.1194L313.24 6.11764L313.023 6.50982L312.933 6.34833L306.762 17.4937L321.931 45.2859L334.649 45.1773L327.563 32.3845L334.863 19.1221L320.438 19.1194ZM355.005 43.7551L361.742 31.5933L354.815 19.1194H340.669L334.075 31.0641L341.055 43.8868L355.005 43.7551ZM338.095 49.8211L323.029 49.9677V77.2998L345.242 64.1256L338.095 49.8211ZM359.432 74.8205L348.78 67.8996L324.067 82.5475L324.168 96.0351L336.895 88.3787L349.159 95.7786V81.0032L359.432 74.8205ZM349.159 117.117V102.082L337.533 95.0865L325.13 102.415L325.241 117.273L337.072 124.407L349.159 117.117ZM75.64 135.285V149.565L75.2916 149.494V150.454L64.0662 143.724L54.984 127.586H48.9016L41.9503 140.113H41.8785L41.5423 140.811H28.083L21.0151 128.054L21.2741 127.586H15.7786L15.2025 128.624L22.1579 141.159H21.9979L22.3151 141.51H7.6453L1.06272 153.523L1.04645 153.495L0.95563 153.66L0.658764 153.128L0.580141 153.272L0.173475 152.548V165.963L0.871586 164.733L8.19159 177.794H23.1474L17.366 189.349L9.73014 194.304L3.52441 198.327L1.33519 199.622L0.17483 198.93V206.509L11.8597 213.538V213.587L12.5565 213.994L12.5389 227.421L0.677741 234.554L0.178897 234.252V240.024L1.06543 240.557L12.5605 233.62V233.737L12.9089 233.448V247.697L24.8283 254.744L24.7971 254.761L24.9598 254.859L24.7226 254.995H34.953L34.896 254.961L46.6961 247.633L47.4065 233.399V232.614L57.5731 238.378L62.3013 246.3L67.3901 254.82L67.2925 254.997H72.8923L79.91 242.333H79.9994L80.3397 241.636L93.7963 241.654L100.845 254.396L100.512 254.997H106.37L106.73 254.347L99.6685 241.636H99.8448L99.5235 241.287H113.741L120.941 228.524V228.642L121.038 228.471L121.351 229.035L121.437 228.881L122.043 230.016V216.029L120.99 217.928L113.67 205.019H99.4977L100.71 202.576L105.171 193.711L105.603 193.431L105.663 193.466L105.721 193.355L105.792 193.313L112.762 188.778L113.375 188.38L120.85 183.53L122.043 184.239V177.217L111.183 170.676V170.604L110.486 170.204V155.843L122.043 148.912V143.077L119.946 144.34L119.811 144.424L110.837 149.782V135.397L110.14 135.161V135.419L97.3045 127.82L97.6528 127.604L97.6203 127.581H87.7654L88.1084 127.788L75.64 135.285ZM110.49 149.878L110.692 149.941L110.49 150.063V149.878ZM75.2916 156.284L75.1655 173.606H49.0901L62.3921 149.23L75.2916 156.284ZM74.5935 178.49V205.36H49.1497V178.49H74.5935ZM10.7495 171.404L4.00563 159.238L10.9271 146.745H25.0859L31.6834 158.699L24.7145 171.518L10.7495 171.404ZM41.0286 245.069L29.5619 251.97L17.7835 244.883V230.385L29.0414 223.62L41.1343 230.77L41.0286 245.069ZM42.0818 224.205L30.321 217.132L18.1332 224.418V210.033L6.19485 202.844L6.54323 202.624L6.39276 202.53L16.5594 196.423L42.1794 211.61L42.0818 224.205ZM43.92 206.414L20.1815 192.351L27.2805 178.144L43.9213 178.28V206.414H43.92ZM43.8346 172.563L31.1154 172.457L38.2036 159.665L30.8944 146.396H45.3175L52.5183 133.401L52.7311 133.792L52.8219 133.628L59.01 144.756L43.8346 172.563ZM59.0425 234.866L47.4051 228.551L47.5407 210.242H72.4829L59.0425 234.866ZM76.5292 236.059L69.3299 249.062L69.113 248.67L69.0221 248.83L62.8462 237.683L78.0135 209.893L90.7327 210.002L83.6459 222.793L90.9455 236.059H76.5292ZM111.096 211.424L117.833 223.585L110.905 236.059H96.7568L90.162 224.117L97.1418 211.295L111.096 211.424ZM94.184 205.357L79.1115 205.21V177.88L101.335 191.059L94.184 205.357ZM115.522 180.357L104.871 187.278L80.1662 172.625L80.2665 159.136L92.9951 166.794L105.257 159.393V174.184L115.522 180.357ZM105.248 138.061V153.097L93.6146 160.091L81.2113 152.763L81.3225 137.907L93.1551 130.773L105.248 138.061ZM168.443 119.891V105.612L168.791 105.681V104.722L180.016 111.451L189.099 127.589H195.169L202.12 115.062H202.192L202.528 114.365H215.989L223.057 127.121L222.796 127.588H228.293L228.868 126.549L221.913 114.015H222.074L221.757 113.666H236.425L243.008 101.653L243.024 101.683L243.116 101.516L243.412 102.048L243.49 101.904L243.897 102.629V89.2146L243.2 90.4441L235.88 77.3812H220.939L226.721 65.8274L234.357 60.8728L240.561 56.8506L242.753 55.5559L243.913 56.2535V48.6744L232.227 41.649V41.6001L231.53 41.193L231.548 27.7665L243.413 20.6298L243.913 20.9311V15.1596L243.025 14.6249L231.529 21.5648V21.4468L231.18 21.7358V7.48689L219.262 0.438413L219.294 0.420771L219.13 0.323068L219.367 0.187364H209.136L209.193 0.22129L197.4 7.5493L196.686 21.7874V22.5717L186.519 16.8084L181.78 8.87242L176.691 0.352919L176.79 0.176514H171.189L164.171 12.839H164.082L163.743 13.5379L150.286 13.5203L143.237 0.777673L143.571 0.176514H137.712L137.353 0.825183L144.414 13.5379H144.238L144.559 13.8867H130.346L123.147 26.6428V26.5262L123.049 26.6958L122.737 26.134L122.651 26.286L122.043 25.1515V39.1507L123.098 37.2509L130.418 50.159H144.592L143.372 52.6017L138.911 61.4672L138.478 61.7454L138.42 61.7115L138.36 61.8227L138.29 61.8648L131.321 66.4L130.707 66.7977L123.232 71.6477L122.038 70.938V77.9485L132.899 84.4907V84.5627L133.595 84.9698V99.3368L122.038 106.267V112.102L124.135 110.838L124.271 110.755L133.251 105.395V119.779L133.949 120.017V119.759L146.784 127.358L146.435 127.575L146.468 127.597H156.32L155.977 127.39L168.443 119.891ZM133.601 105.294L133.399 105.232L133.601 105.11V105.294ZM168.801 98.889L168.925 81.5677H194.997L181.695 105.944L168.801 98.889ZM169.497 76.6823V49.8129H194.938V76.6823H169.497ZM233.337 83.7715L240.081 95.9374L233.168 108.432H219.001L212.403 96.4761L219.372 83.6603L233.337 83.7715ZM203.062 10.1141L214.529 3.21221L226.307 10.2987V24.7932L215.056 31.558L202.954 24.4146L203.062 10.1141ZM202.009 30.9773L213.77 38.0515L225.959 30.7656V45.1502L237.897 52.3316L237.549 52.5515L237.698 52.6465L227.531 58.7531L201.911 43.5665L202.009 30.9773ZM200.169 48.764L223.909 62.8283L216.81 77.0338L200.169 76.8981V48.764ZM200.256 82.6167L212.974 82.7212L205.886 95.514L213.195 108.783H198.769L191.57 121.778L191.352 121.389L191.261 121.554L185.074 110.427L200.256 82.6167ZM185.048 20.3123L196.684 26.6279L196.549 44.9371H171.607L185.048 20.3123ZM167.562 19.1194L174.76 6.11764L174.976 6.50982L175.067 6.34833L181.238 17.4937L166.069 45.2859L153.351 45.1773L160.437 32.3845L153.137 19.1221L167.562 19.1194ZM132.98 43.7551L126.243 31.5933L133.17 19.1194H147.329L153.922 31.0682L146.942 43.8908L132.98 43.7551ZM149.891 49.8211L164.964 49.9677V77.2998L142.751 64.1256L149.891 49.8211ZM128.555 74.8205L139.207 67.8996L163.921 82.5475L163.82 96.0351L151.093 88.3787L138.829 95.7786V81.0032L128.555 74.8205ZM138.829 117.117V102.082L150.472 95.0865L162.875 102.415L162.764 117.273L150.933 124.407L138.829 117.117ZM168.631 135.285V149.565L168.979 149.494V150.454L180.205 143.724L189.294 127.586H195.365L202.317 140.113H202.388L202.725 140.811H216.184L223.252 128.054L222.993 127.586H228.488L229.063 128.624L222.109 141.159H222.269L221.952 141.51H236.622L243.204 153.521L243.221 153.492L243.311 153.658L243.608 153.126L243.686 153.27L244.092 152.545V165.961L243.395 164.731L236.075 177.793H221.114L226.896 189.348L234.531 194.302L240.734 198.325L242.926 199.619L244.087 198.92V206.499L232.402 213.529V213.578L231.705 213.985L231.723 227.411L243.587 234.549L244.087 234.248V240.02L243.2 240.553L231.705 233.616V233.733L231.357 233.444V247.692L219.437 254.74L219.468 254.757L219.306 254.855L219.543 254.991H209.311L209.37 254.957L197.576 247.629L196.855 233.399V232.614L186.688 238.378L181.96 246.3L176.872 254.82L176.969 254.997H171.368L164.352 242.333H164.262L163.922 241.636L150.465 241.654L143.416 254.396L143.75 254.997H137.891L137.532 254.347L144.593 241.636H144.417L144.738 241.287H130.521L123.32 228.524V228.642L123.224 228.471L122.911 229.035L122.824 228.881L122.218 230.016V216.029L123.271 217.928L130.591 205.019H144.765L143.545 202.576L139.085 193.711L138.653 193.431L138.593 193.466L138.535 193.355L138.465 193.313L131.494 188.778L130.882 188.38L123.406 183.53L122.213 184.239V177.217L133.074 170.674V170.602L133.77 170.201V155.843L122.213 148.912V143.077L124.31 144.34L124.445 144.424L133.419 149.782V135.397L134.116 135.161V135.419L146.952 127.82L146.603 127.604L146.636 127.581H156.488L156.145 127.788L168.631 135.285ZM133.776 149.881L133.574 149.943L133.776 150.066V149.881ZM168.974 156.286L169.1 173.609H195.172L181.869 149.232L168.974 156.286ZM169.672 178.493V205.362H195.112V178.493H169.672ZM233.519 171.404L240.263 159.238L233.341 146.745H219.174L212.578 158.699L219.547 171.515L233.519 171.404ZM203.233 245.069L214.7 251.97L226.477 244.883V230.385L215.226 223.62L203.133 230.77L203.233 245.069ZM202.18 224.205L213.941 217.132L226.128 224.418V210.033L238.067 202.852L237.718 202.632L237.869 202.538L227.702 196.432L202.082 211.618L202.18 224.205ZM200.34 206.418L224.08 192.355L216.981 178.148L200.34 178.284V206.418ZM200.426 172.567L213.145 172.461L206.057 159.669L213.364 146.4H198.944L191.743 133.405L191.526 133.793L191.436 133.629L185.247 144.757L200.426 172.567ZM185.218 234.87L196.855 228.555L196.72 210.246H171.777L185.218 234.87ZM167.731 236.063L174.929 249.066L175.147 248.674L175.238 248.834L181.413 237.687L166.247 209.898L153.527 210.006L160.614 222.798L153.313 236.059L167.731 236.063ZM133.164 211.428L126.427 223.589L133.355 236.063H147.513L154.108 224.121L147.128 211.299L133.164 211.428ZM150.076 205.361L165.149 205.214V177.884L142.927 191.059L150.076 205.361ZM128.73 180.357L139.381 187.278L164.095 172.632L163.995 159.143L151.266 166.801L139.003 159.399V174.191L128.73 180.357ZM139.003 138.061V153.097L150.647 160.091L163.05 152.763L162.939 137.907L151.106 130.773L139.003 138.061ZM75.64 119.891V105.612L75.2916 105.681V104.722L64.0662 111.451L54.984 127.589H48.9016L41.9503 115.065H41.8785L41.5423 114.367H28.083L21.0151 127.124L21.2741 127.59H15.7786L15.2025 126.552L22.1579 114.017H21.9979L22.3151 113.668H7.6453L1.06272 101.655L1.04645 101.684L0.95563 101.518L0.658764 102.049L0.580141 101.902L0.173475 102.626V89.2119L0.87023 90.4414L8.19023 77.3785H23.1474L17.366 65.8247L9.73014 60.8701L3.52441 56.8479L1.33247 55.5532L0.172119 56.2508V48.6717L11.8597 41.649V41.6001L12.5565 41.193L12.5389 27.7665L0.677741 20.6257L0.178897 20.927V15.1555L1.06543 14.6208L12.5565 21.5648V21.4468L12.9049 21.7358V7.48689L24.8243 0.438413L24.7931 0.420771L24.9557 0.323068L24.7185 0.187364H34.9489L34.892 0.22129L46.6921 7.5493L47.4065 21.7874V22.5717L57.5731 16.8084L62.3013 8.88464L67.3901 0.365144L67.2925 0.188722H72.8923L79.91 12.8513H79.9994L80.3397 13.5501L93.7963 13.5325L100.845 0.789898L100.512 0.188722H106.37L106.73 0.837391L99.6685 13.5501H99.8448L99.5235 13.8989H113.741L120.941 26.6551V26.5384L121.038 26.708L121.351 26.1462L121.437 26.2982L122.043 25.1637V39.1629L120.99 37.263L113.67 50.1712H99.4977L100.71 52.6139L105.171 61.4794L105.603 61.7576L105.663 61.7237L105.721 61.835L105.792 61.877L112.762 66.4123L113.375 66.8099L120.85 71.6599L122.043 70.9502V77.9607L111.183 84.503V84.5749L110.486 84.982V99.3368L122.043 106.267V112.102L119.946 110.838L119.811 110.755L110.837 105.396V119.781L110.14 120.018V119.76L97.3045 127.36L97.6528 127.577L97.6203 127.598H87.7654L88.1084 127.391L75.64 119.891ZM110.486 105.294L110.688 105.232L110.486 105.11V105.294ZM75.2875 98.889L75.1615 81.5677H49.0901L62.3921 105.944L75.2875 98.889ZM74.5894 76.6823V49.8129H49.1497V76.6823H74.5894ZM10.7495 83.7742L4.00563 95.9401L10.9271 108.434H25.0859L31.6834 96.4788L24.7145 83.663L10.7495 83.7742ZM41.0286 10.1141L29.5619 3.21221L17.7835 10.3014V24.7959L29.0414 31.5608L41.1343 24.4146L41.0286 10.1141ZM42.0818 30.9773L30.321 38.0515L18.1332 30.7656V45.1502L6.19485 52.3343L6.54323 52.5542L6.39276 52.6492L16.5594 58.7559L42.1794 43.5692L42.0818 30.9773ZM43.92 48.764L20.1815 62.8283L27.2805 77.0338L43.9213 76.8981V48.764H43.92ZM43.8346 82.6167L31.1154 82.7212L38.2036 95.514L30.8944 108.783H45.3175L52.5183 121.778L52.7351 121.389L52.826 121.554L59.0141 110.427L43.8346 82.6167ZM59.0425 20.3123L47.4051 26.6279L47.5407 44.9371H72.4829L59.0425 20.3123ZM76.5292 19.1194L69.3299 6.11764L69.113 6.50982L69.0221 6.34833L62.8503 17.4937L78.0176 45.2859L90.7368 45.1773L83.6499 32.3845L90.9496 19.1221L76.5292 19.1194ZM111.096 43.7551L117.833 31.5933L110.914 19.1221H96.7568L90.162 31.0641L97.1418 43.8868L111.096 43.7551ZM94.184 49.8211L79.1115 49.9677V77.2998L101.325 64.1256L94.184 49.8211ZM115.522 74.8205L104.871 67.8996L80.1662 82.5542L80.2665 96.0419L92.9911 88.3854L105.253 95.7854V81.0032L115.522 74.8205ZM105.248 117.117V102.082L93.6051 95.0865L81.2018 102.415L81.313 117.273L93.1456 124.407L105.248 117.117Z" fill="#b9d4ac"/>
</svg>
